# xmcd CD database file
#
# Track frame offsets:
#	150
#	20296
#	38108
#	56443
#	75515
#	93338
#	115093
#	130355
#	149665
#	167014
#	181299
#	199496
#	217043
#
# Disc length: 3135 seconds
#
# Revision: 0
# Processed by: cddbd v1.5.2PL0 Copyright (c) Steve Scherf et al.
# Submitted via: CDex 1.51
#
DISCID=b60c3d0d
DTITLE=Rascal Flatts - Still Feels Good
DYEAR=2007
DGENRE=Country
TTITLE0=Take Me There
TTITLE1=Here
TTITLE2=Bob That Head
TTITLE3=Help Me Remember
TTITLE4=Still Feels Good
TTITLE5=Winner at a Losing Game
TTITLE6=No Reins
TTITLE7=Every Day
TTITLE8=Secret Smile
TTITLE9=Better Now
TTITLE10=She Goes All the Way
TTITLE11=How Strong Are You Now
TTITLE12=It's Not Supposed To Go Like That
EXTD=YEAR: 2007
EXTT0=
EXTT1=
EXTT2=
EXTT3=
EXTT4=
EXTT5=
EXTT6=
EXTT7=
EXTT8=
EXTT9=
EXTT10=
EXTT11=
EXTT12=
PLAYORDER=
